<svg xmlns="http://www.w3.org/2000/svg" xmlns:xlink="http://www.w3.org/1999/xlink" xmlns:sketch="http://www.bohemiancoding.com/sketch/ns" viewBox="0 0 40 40" version="1.1" x="0px" y="0px"><title>saxophone_music_instrument_woodwind</title><desc>Created with Sketch.</desc><g stroke="none" stroke-width="1" fill="none" fill-rule="evenodd" sketch:type="MSPage"><path d="M13,10.1904004 C15.2451963,9.75162456 16.4199422,6.8571391 17.4704444,7.13211518 C18.5278737,7.40890447 15.8279361,20.8218727 14.7395774,27.9466171 C13.6512188,35.0713614 19.2530679,37.5363539 23.5253972,35.0713615 C27.7640682,32.6257888 26.7554736,27.3318422 27.7640682,24.9711657 C28.2520255,23.829072 29.8070633,24.0575313 30.1957105,24.1343659 L30.1957105,24.1343659 L30.2471211,24.1759973 L30.2683508,24.1497807 C30.2788823,24.1522037 30.2843989,24.1535861 30.2843989,24.1535861 L30.2728277,24.1442522 L30.9464749,23.3123672 L22.7368174,16.6643177 L22.0374636,17.5279477 L22.1625325,17.6292265 C23.1353475,18.7952556 22.2590673,19.3639554 21.8827528,21.6404545 C21.4969505,23.9743493 22.1463301,30.6255945 20.3904142,30.6255935 C19.3655768,30.6255929 19.5873044,27.0603249 19.9811168,21.9334561 C19.9705262,21.9338497 19.9598851,21.9340483 19.949197,21.9340483 C19.488888,21.9340483 19.1157338,21.5656973 19.1157338,21.1113133 C19.1157338,20.6569292 19.488888,20.2885782 19.949197,20.2885782 C20.0031444,20.2885782 20.0558947,20.2936377 20.1069875,20.3033021 L20.1069875,20.3033021 C20.1299646,20.004876 20.1531277,19.7023515 20.1762982,19.3960616 L20.1762982,19.3960616 C20.1633676,19.3966498 20.1503602,19.3969471 20.1372824,19.3969471 C19.6769734,19.3969471 19.3038192,19.0285961 19.3038192,18.574212 C19.3038192,18.119828 19.6769734,17.751477 20.1372824,17.751477 C20.1916466,17.751477 20.2447951,17.7566149 20.2962568,17.7664257 C20.3161094,17.4874482 20.3357293,17.2060243 20.3549962,16.9223781 C20.3208704,16.9265783 20.2861039,16.9287419 20.2508254,16.9287419 C19.7905164,16.9287419 19.4173623,16.5603909 19.4173623,16.1060068 C19.4173623,15.6516228 19.7905164,15.2832718 20.2508254,15.2832718 C20.322564,15.2832718 20.3921857,15.2922186 20.4586079,15.3090435 L20.4586079,15.3090435 C20.5746802,13.3806282 20.6654078,11.3731259 20.695872,9.35165214 C20.7431995,6.21120524 20.4111695,4.62320174 18.6089953,4.04792993 C16.8914997,3.49968839 14.7475871,7.81602076 13,8.76575657 L13,10.1904004 Z M12,10.2299991 C10.566758,10.0800297 9.43391427,9.12963124 9.43391427,9.12963124 C8.7502818,8.46236418 8.85582125,7.91193246 9.88333862,8.33448132 C9.88333862,8.33448132 11.0812224,8.88137491 12,8.96894195 L12,10.2299991 Z" fill="#000000" sketch:type="MSShapeGroup"></path></g></svg>